<?xml version="1.0" standalone="no"?>
<!DOCTYPE svg PUBLIC "-//W3C//DTD SVG 20010904//EN"
 "http://www.w3.org/TR/2001/REC-SVG-20010904/DTD/svg10.dtd">
<svg version="1.0" xmlns="http://www.w3.org/2000/svg"
 width="128.000000pt" height="128.000000pt" viewBox="0 0 128.000000 128.000000"
 preserveAspectRatio="xMidYMid meet">

<g transform="translate(0.000000,128.000000) scale(0.100000,-0.100000)"
fill="#000000" stroke="none">
<path d="M350 1220 c-11 -11 -20 -29 -20 -39 0 -12 -23 -36 -62 -64 -79 -57
-113 -92 -132 -139 -20 -47 -20 -62 0 -151 18 -79 50 -120 104 -130 37 -8 38
-22 5 -88 -26 -51 -25 -75 2 -65 13 5 14 1 9 -26 -21 -96 -21 -101 3 -93 19 6
21 3 21 -32 0 -21 9 -78 20 -127 11 -50 20 -96 20 -102 0 -18 -58 -46 -109
-53 -56 -8 -68 -31 -17 -31 20 0 36 -4 36 -10 0 -19 43 -31 123 -36 76 -5 86
-3 120 20 46 32 91 35 82 7 -7 -23 13 -40 50 -41 144 -4 157 -2 202 29 l44 31
210 0 c164 0 210 3 206 13 -2 6 -10 11 -16 10 -15 -4 -14 3 5 32 19 29 11 62
-19 76 -20 9 -22 18 -23 102 -1 136 -48 259 -157 414 -29 41 -56 81 -62 89 -7
10 -6 17 5 24 12 8 6 18 -33 57 -27 29 -47 58 -47 71 0 12 -4 22 -10 22 -5 0
-28 16 -49 35 -37 34 -39 37 -26 62 14 27 9 52 -21 98 -27 41 -46 47 -90 25
-44 -23 -65 -25 -82 -8 -7 7 -30 11 -53 9 -22 -1 -46 2 -52 8 -9 7 -25 4 -54
-9 l-41 -18 -23 24 c-27 29 -43 30 -69 4z m47 -27 c2 -6 -5 -13 -17 -16 -22
-6 -23 -5 -14 18 7 17 25 16 31 -2z m117 -12 c4 -5 23 -5 48 1 29 6 44 6 46
-1 2 -6 14 -11 27 -11 15 0 25 -7 28 -21 6 -21 7 -21 44 10 46 38 56 38 82 5
27 -34 27 -61 -1 -83 -19 -16 -18 -48 2 -36 10 6 80 -62 80 -79 0 -7 18 -29
40 -51 26 -25 36 -42 30 -50 -6 -7 19 -50 72 -125 135 -193 170 -281 172 -430
1 -82 -3 -102 -24 -145 l-25 -50 -137 -3 -137 -3 15 43 c8 23 12 48 9 56 -9
23 -31 -3 -45 -53 -8 -29 -25 -56 -47 -75 -36 -32 -66 -40 -57 -15 4 9 0 15
-9 15 -8 0 -17 -7 -21 -15 -3 -8 -15 -15 -26 -15 -17 0 -20 4 -15 20 7 23 -7
26 -27 7 -17 -17 -48 -29 -48 -18 0 4 18 24 41 44 41 37 41 38 34 90 -4 28
-12 60 -17 70 -16 31 -27 8 -21 -43 3 -30 2 -50 -4 -50 -14 0 -125 73 -142 93
-7 9 -17 17 -22 17 -18 0 -8 -25 22 -56 30 -31 30 -33 18 -73 -19 -65 -99
-121 -99 -70 l0 20 -26 -20 c-34 -27 -54 -27 -47 -1 7 24 0 25 -34 3 -21 -14
-25 -15 -22 -3 3 8 22 23 43 34 38 18 38 20 33 65 -3 25 -12 78 -21 116 -9 39
-16 92 -16 118 0 39 -4 50 -18 54 -17 4 -18 8 -5 56 11 44 11 53 -1 61 -12 8
-12 16 1 53 15 43 15 43 63 43 27 0 52 5 55 10 8 13 -1 15 -98 28 -57 7 -85
16 -102 32 -28 26 -45 89 -45 165 0 54 2 58 52 112 60 63 110 94 211 133 84
33 84 33 91 21z m714 -1019 c2 -15 -6 -25 -28 -37 -18 -9 -30 -13 -28 -8 3 4
11 23 18 41 16 35 33 37 38 4z m-648 -7 c47 -24 33 -45 -31 -45 -33 0 -33 -1
-19 34 11 30 12 31 50 11z"/>
<path d="M730 1135 c-23 -25 -23 -25 -4 -40 30 -23 49 -14 24 11 -8 8 -6 15 5
24 16 13 20 30 7 30 -5 0 -19 -11 -32 -25z"/>
<path d="M551 1037 c-38 -19 -38 -37 1 -37 34 0 78 23 78 41 0 13 -51 11 -79
-4z"/>
<path d="M182 929 c2 -7 10 -15 17 -17 8 -3 12 1 9 9 -2 7 -10 15 -17 17 -8 3
-12 -1 -9 -9z"/>
<path d="M273 933 c-13 -5 -19 -33 -7 -33 15 0 44 22 39 31 -7 10 -13 10 -32
2z"/>
<path d="M224 836 c4 -27 3 -47 -4 -51 -5 -3 -10 -13 -10 -21 0 -11 4 -13 17
-5 12 6 26 5 45 -5 23 -12 28 -12 28 -1 0 8 -11 19 -25 25 -21 10 -25 18 -25
57 0 35 -4 45 -16 45 -14 0 -15 -7 -10 -44z"/>
<path d="M800 861 c0 -8 43 -41 55 -41 12 0 4 24 -12 36 -21 15 -43 18 -43 5z"/>
<path d="M796 813 c-3 -3 6 -17 20 -30 27 -25 41 -25 31 1 -7 18 -42 38 -51
29z"/>
<path d="M780 751 c11 -22 29 -35 36 -28 9 8 -20 47 -34 47 -9 0 -10 -5 -2
-19z"/>
<path d="M740 726 c0 -15 18 -31 26 -23 7 7 -7 37 -17 37 -5 0 -9 -6 -9 -14z"/>
<path d="M360 555 c0 -19 5 -35 10 -35 6 0 10 9 10 19 0 11 3 26 6 35 4 11 1
16 -10 16 -12 0 -16 -10 -16 -35z"/>
<path d="M410 549 c0 -26 19 -61 29 -55 10 6 -10 76 -21 76 -5 0 -8 -9 -8 -21z"/>
<path d="M465 560 c-4 -6 -3 -16 3 -22 13 -13 23 4 13 21 -7 10 -10 10 -16 1z"/>
</g>
</svg>
