<svg xmlns="http://www.w3.org/2000/svg" viewBox="0 0 48 48" fill="none">
  <!-- Body -->
  <ellipse cx="24" cy="28" rx="14" ry="12" fill="#E84A36"/>
  <ellipse cx="24" cy="28" rx="11" ry="9" fill="#F26D5B"/>
  <!-- Eyes -->
  <circle cx="19" cy="18" r="4" fill="#E84A36"/>
  <circle cx="29" cy="18" r="4" fill="#E84A36"/>
  <circle cx="19" cy="17.5" r="2.2" fill="#FFF"/>
  <circle cx="29" cy="17.5" r="2.2" fill="#FFF"/>
  <circle cx="19.6" cy="17" r="1" fill="#222"/>
  <circle cx="29.6" cy="17" r="1" fill="#222"/>
  <!-- Eye stalks -->
  <rect x="18" y="14" width="2" height="5" rx="1" fill="#E84A36"/>
  <rect x="28" y="14" width="2" height="5" rx="1" fill="#E84A36"/>
  <!-- Left claw -->
  <path d="M6 24c-2-4 0-8 3-9 2-1 4 0 5 2l1 3-4 2-2 4z" fill="#E84A36"/>
  <path d="M4 20c-1-2 0-5 2-6s4 0 4.5 2" stroke="#C73A2A" stroke-width="0.8" fill="none"/>
  <!-- Right claw -->
  <path d="M42 24c2-4 0-8-3-9-2-1-4 0-5 2l-1 3 4 2 2 4z" fill="#E84A36"/>
  <path d="M44 20c1-2 0-5-2-6s-4 0-4.5 2" stroke="#C73A2A" stroke-width="0.8" fill="none"/>
  <!-- Legs -->
  <line x1="14" y1="34" x2="10" y2="40" stroke="#E84A36" stroke-width="2.5" stroke-linecap="round"/>
  <line x1="18" y1="36" x2="15" y2="42" stroke="#E84A36" stroke-width="2.5" stroke-linecap="round"/>
  <line x1="34" y1="34" x2="38" y2="40" stroke="#E84A36" stroke-width="2.5" stroke-linecap="round"/>
  <line x1="30" y1="36" x2="33" y2="42" stroke="#E84A36" stroke-width="2.5" stroke-linecap="round"/>
  <!-- Smile -->
  <path d="M20 31 Q24 35 28 31" stroke="#C73A2A" stroke-width="1.2" fill="none" stroke-linecap="round"/>
</svg>
